<svg id="Layer_1" data-name="Layer 1" xmlns="http://www.w3.org/2000/svg" viewBox="0 0 612 792"><defs><style>.cls-1{fill:#fefefe;}.cls-2{fill:#80d3f9;}.cls-3{fill:#e0f4fd;}.cls-4{fill:#8fc9f8;}.cls-5{fill:#90c9f8;}</style></defs><path class="cls-1" d="M306.05,587.93q-94.44,0-188.88.06c-2.37,0-3.17-.22-3.17-3q.14-189.06,0-378.13c0-2.35.54-2.87,2.87-2.87q189.08.1,378.14,0c2.76,0,3,.82,3,3.18q-.09,188.88,0,377.75c0,2.58-.51,3.07-3.07,3.07Q400.49,587.87,306.05,587.93Z"/><path class="cls-2" d="M205.62,395.24l-1.15-5.11a48.13,48.13,0,0,1-19.7,9.21c-21.63,4.51-44.85-13.13-46.85-35.08s12.34-38.92,29.05-43.43a42.89,42.89,0,0,1,20.36-.45c1.41.29,2.54.82,3.2-1.18,5.72-17.17,18-26.67,35.58-30-1.89-7.09-3.07-14.06-2-21.44,2.65-18.39,16.53-33.91,34.61-38,20.27-4.59,41.51,5.38,50.62,23.84,1.52,3.07,2.75,6.29,4.11,9.44,2.93-1.62,5.77-3.42,8.8-4.82,28.5-13.21,62.72,5.45,67.11,36.41a43.68,43.68,0,0,1-.32,15.22c-.27,1.29-.29,2.15,1.06,2.68,5,2,9.49,4.92,14,7.85,2.54,1,4.33,2.92,6,4.93,19.72,23.4,14.72,59.87-13.9,75.17-17.08,9.13-34.38,8.08-50.76-2.75-5.46-3.61-5.45-3.63-9.41,1.31-15,18.64-41.42,22.15-60.38,7.91-2.19-1.63-3.37-1.55-5.22.52-18.57,20.79-51,16.55-63.82-8.31A6.45,6.45,0,0,1,205.62,395.24Z"/><path class="cls-3" d="M205.62,395.24c3.72,7.77,8.69,14.4,16.14,19.1,15.36,9.68,37.42,6,48.53-8.35,1.66-2.16,2.82-2.43,5-.6,19.06,15.89,49.58,10.76,62.28-10.46,1.43-2.4,2.14-2.95,4.55-.86A45.26,45.26,0,0,0,373,405.51c27.5-.41,47.39-21.92,47.86-46.64.3-15.59-5.9-28-16.79-38.48,14.88,2.38,26,10.38,33.46,23.23,5.41,9.27,7.85,19.34,5.66,30.13-.54,2.68.3,3.93,2.95,5.11,15.57,6.95,25.43,19,28.13,35.71,2.45,15.11-1,29.17-12,40.79-10,10.58-22.29,15.74-36.69,15.51a43.28,43.28,0,0,1-18.38-4.33c-1.9-.93-3.54-2.73-6-2.31-1.8-.25-3.25-1-3.74-2.91-.71-.86-1.4-1.72-2.12-2.57-1-1.23-1.71-.92-2.5.38-6.22,10.3-15.36,16.76-26.8,20.12-3.82-5.8-7.86-7.65-12.17.76-8.88,0-16.56-3.48-23.79-8.25-1-.77-1-1.93-1.09-3s0-2-.06-3c-.16-4-2.19-6.81-4.93-6.79s-4.81,2.78-4.94,6.8c-.09,2.86,0,5.72-.05,8.58,0,1.45.22,3-1.09,4.17-5.48,2.79-10.92,5.61-17.18,6.42-2.24.29-4.44.13-6.65.33-1.33-1.12-1-2.69-1.1-4.13a38.86,38.86,0,0,0-.17-4.45c-.47-2.85-2.42-4.64-5-4.48-2.75.17-4.15,1.82-4.68,4.44-.42,2.12.56,4.51-1.22,6.36-11.09-5.06-19-12.95-22.57-24.88-.83-2.82-2.24-1.25-3.57-.37-7.2,4.82-14.93,7.56-23.82,7.32-16.73-.46-28.63-8.35-36-23-7.55-15.1-3.9-34.44,8.09-45.72A12.79,12.79,0,0,1,205.62,395.24Z"/><path class="cls-4" d="M397.47,461.32l3.74,2.91a8.76,8.76,0,0,1,.76,4.37c0,9.11,0,18.22,0,27.33,0,4.74-2.23,7.35-6.09,7.29s-5.88-2.63-5.89-7.49q0-13.49,0-27C390,463.41,391.93,461.51,397.47,461.32Z"/><path class="cls-4" d="M282,483c0-2.11-.05-4.24.1-6.34a6,6,0,0,1,11.92,0c.16,2.86.09,5.73.13,8.59,0,5.23,0,10.45-.1,15.67-.05,4.55-2.13,6.9-6,6.89s-5.93-2.35-6-6.9C282,494.94,282,489,282,483Z"/><path class="cls-5" d="M318,514.54c0-3.25-.09-6.49,0-9.73.12-3.83,2.53-6.19,6.07-6.14a5.71,5.71,0,0,1,5.85,6c.12,6.73.11,13.46,0,20.2a6,6,0,1,1-11.93-.2C317.94,521.27,318,517.9,318,514.54Z"/><path class="cls-5" d="M317.93,478.5c0-4.61,0-9.22.08-13.82.06-3.9,3-7.25,6.17-7.11s5.71,3.36,5.81,7.09c.06,2.37.07,4.73.1,7.1,0,3.85,0,7.69-.11,11.54-.09,4.19-2.26,6.51-6,6.52s-5.87-2.32-6-6.48C318,481.72,318,480.11,317.93,478.5Z"/><path class="cls-5" d="M353.88,480c.51-4.12,2.44-6.4,5.69-6.71,2.9-.28,5.57,2.17,6.48,5.95,0,3.85,0,7.7-.09,11.55-.1,4.05-2.53,6.52-6.16,6.42-3.46-.09-5.69-2.51-5.8-6.4C353.91,487.21,353.92,483.61,353.88,480Z"/><path class="cls-5" d="M294,533.46c0,2,.11,4,0,6a6,6,0,0,1-11.91-.15c-.14-4.1-.14-8.21,0-12.3a6,6,0,0,1,5.8-5.71,6.24,6.24,0,0,1,6.1,5.86C294.1,529.23,294,531.35,294,533.46Z"/><path class="cls-5" d="M402,533.1c0,2,.07,4,0,6-.17,3.79-2.58,6.18-6.07,6.13a5.75,5.75,0,0,1-5.87-5.93c-.13-4-.11-8,0-11.93a6.06,6.06,0,0,1,5.84-6.07,6.25,6.25,0,0,1,6.11,6.24C402,529.37,402,531.24,402,533.1Z"/><path class="cls-5" d="M330,551.28c0,2,.08,4,0,6-.19,3.59-2.53,5.9-5.87,6-3.49.06-6-2.33-6.07-6.11-.11-4-.12-8,0-11.93a6.06,6.06,0,0,1,6-5.88,6.23,6.23,0,0,1,5.92,6C330.07,547.3,330,549.29,330,551.28Z"/><path class="cls-4" d="M366,437.63c0,4.37,0,8.74,0,13.11-.05,3.85-2.77,6.77-6.11,6.68s-5.83-2.89-5.86-6.55q-.08-13.29,0-26.59c0-4.25,2.19-6.57,5.92-6.6s6,2.28,6,6.47C366,428.64,366,433.13,366,437.63Z"/><path class="cls-4" d="M294,439.21c0,3.86,0,7.73,0,11.6-.06,4.21-2.25,6.65-5.89,6.7s-6.05-2.39-6.08-6.51q-.09-12,0-23.95c0-3.9,2.36-6.28,5.87-6.33,3.67-.05,6,2.4,6.08,6.51S294,435.21,294,439.21Z"/><path class="cls-5" d="M402,431.09c0,2.11.09,4.23,0,6.34a6,6,0,0,1-11.92-.07c-.13-4.09-.13-8.2,0-12.3a6,6,0,0,1,5.76-5.76,6.34,6.34,0,0,1,6.15,5.82C402.05,427.11,402,429.1,402,431.09Z"/><path class="cls-5" d="M330,437.5c0,2,.1,4,0,6a6,6,0,0,1-11.92-.13q-.19-6.15,0-12.31a6,6,0,0,1,5.79-5.72,6.32,6.32,0,0,1,6.12,5.86C330.08,433.26,330,435.38,330,437.5Z"/></svg>